<svg width="18" height="24" viewBox="0 0 18 24" fill="none" xmlns="http://www.w3.org/2000/svg">
            <path d="M4.50195 0H7.07995V1.078H5.57995V2.156H7.07995V3.234H4.50195V0Z" fill="black" />
            <path d="M7.59473 0H10.1737V0.938H8.67373V1.125H10.1737V3.281H7.59473V2.297H9.09473V2.109H7.59473V0Z" fill="black" />
            <path d="M10.6904 0H13.2674V0.938H11.7674V1.125H13.2674V3.281H10.6904V2.297H12.1904V2.109H10.6904V0Z" fill="black" />
            <path fillRule="evenodd" clipRule="evenodd" d="M8.991 23.9998L2.047 22.0718L0 4.7168H18L15.954 22.0698L8.991 23.9998ZM4.047 12.5728L4.238 14.7008H11.615L11.368 17.4608L8.994 18.1028H8.992L6.622 17.4628L6.47 15.7658H4.333L4.631 19.1078L8.991 20.3178L13.358 19.1078L13.89 13.1438L13.942 12.5728L14.326 8.2638H3.664L3.858 10.3928H11.994L11.8 12.5728H4.047V12.5728Z" fill="black" />
          </svg>