<svg width="18" height="24" viewBox="0 0 18 24" fill="none" xmlns="http://www.w3.org/2000/svg">
            <path d="M2.08008 0H3.16208V1.069H4.15208V0H5.23408V3.236H4.15208V2.153H3.16208V3.236H2.08108V0H2.08008Z" fill="black" />
            <path d="M6.6561 1.073H5.7041V0H8.6911V1.073H7.7381V3.236H6.6561V1.073Z" fill="black" />
            <path d="M9.16504 0H10.293L10.987 1.137L11.68 0H12.808V3.236H11.731V1.632L10.987 2.783H10.968L10.223 1.633V3.236H9.16504V0V0Z" fill="black" />
            <path d="M13.3457 0H14.4287V2.167H15.9487V3.237H13.3457V0V0Z" fill="black" />
            <path fillRule="evenodd" clipRule="evenodd" d="M2.046 22.0718L0 4.7168H18L15.953 22.0698L8.99 23.9998L2.046 22.0718ZM6.183 12.5718L5.989 10.3918H14.134L14.324 8.2638H3.664L4.238 14.7008H11.615L11.368 17.4608L8.994 18.1028H8.992L6.622 17.4628L6.47 15.7658H4.332L4.63 19.1078L8.99 20.3178L13.357 19.1078L13.889 13.1438L13.941 12.5728H6.183V12.5718Z" fill="black" />
          </svg>