<svg width="21" height="24" viewBox="0 0 21 24" fill="none" xmlns="http://www.w3.org/2000/svg">
            <g clipPath="url(#clip0)">
              <path d="M10.639 23.9997H10.636C10.297 23.9997 9.98002 23.9087 9.70802 23.7487L9.71702 23.7537L6.78002 22.0167C6.34202 21.7707 6.55602 21.6847 6.70002 21.6337C7.17527 21.4864 7.62964 21.2787 8.05202 21.0157L8.02802 21.0297C8.06302 21.0137 8.10153 21.007 8.13987 21.0101C8.17821 21.0133 8.2151 21.0262 8.24702 21.0477L8.24602 21.0467L10.502 22.3857C10.5442 22.4083 10.5913 22.42 10.6392 22.4199C10.687 22.4197 10.734 22.4076 10.776 22.3847L10.774 22.3857L19.568 17.3087C19.6088 17.2838 19.6426 17.2488 19.666 17.2071C19.6895 17.1655 19.7019 17.1185 19.702 17.0707V6.9217C19.7016 6.87357 19.6889 6.82634 19.6651 6.7845C19.6413 6.74267 19.6072 6.70762 19.566 6.6827L19.565 6.6817L10.774 1.6097C10.7324 1.58646 10.6855 1.57434 10.6379 1.57452C10.5902 1.57469 10.5434 1.58715 10.502 1.6107L10.503 1.6097L1.71402 6.6827C1.67207 6.70727 1.63721 6.74229 1.61285 6.78436C1.58849 6.82642 1.57545 6.87409 1.57502 6.9227V17.0717C1.57502 17.1727 1.63002 17.2597 1.71202 17.3057L1.71302 17.3067L4.12302 18.6987C5.43002 19.3527 6.23002 18.5827 6.23002 17.8097V7.7877C6.23002 7.6477 6.34402 7.5337 6.48402 7.5337H7.60302C7.74302 7.5337 7.85702 7.6467 7.85702 7.7877V17.8097C7.85702 19.5547 6.90702 20.5557 5.25302 20.5557L5.18702 20.5567C4.48904 20.5578 3.80463 20.3639 3.21102 19.9967L0.921023 18.6787C0.640472 18.5151 0.407707 18.2808 0.245932 17.9992C0.0841577 17.7176 -0.000974221 17.3985 -0.000976562 17.0737V6.9227C2.34375e-05 6.2427 0.367023 5.6497 0.913023 5.3277L0.922023 5.3227L9.71702 0.240702C10.0019 0.0845032 10.3218 0.00303886 10.6467 0.00391321C10.9716 0.00478757 11.291 0.0879721 11.575 0.245702L11.565 0.240702L20.359 5.3227C20.914 5.6497 21.28 6.2427 21.282 6.9227V17.0727C21.2817 17.3959 21.1971 17.7134 21.0366 17.994C20.8762 18.2746 20.6454 18.5085 20.367 18.6727L20.358 18.6777L11.566 23.7557C11.286 23.9181 10.9677 24.003 10.644 24.0017H10.637L10.639 23.9997Z" fill="black" />
              <path d="M13.3562 17.0087C9.50817 17.0087 8.70117 15.2427 8.70117 13.7597V13.7587C8.70117 13.6187 8.81417 13.5057 8.95417 13.5057H10.0942C10.2212 13.5057 10.3262 13.5987 10.3462 13.7197V13.7207C10.5172 14.8787 11.0292 15.4627 13.3562 15.4627C15.2092 15.4627 15.9962 15.0437 15.9962 14.0607C15.9962 13.4937 15.7732 13.0737 12.8942 12.7917C10.4882 12.5517 9.00017 12.0217 9.00017 10.0967C9.00017 8.32267 10.4962 7.26367 13.0002 7.26367C15.8182 7.26367 17.2122 8.24167 17.3882 10.3397L17.3892 10.3617C17.3892 10.429 17.3624 10.4936 17.3148 10.5413C17.2671 10.5889 17.2025 10.6157 17.1352 10.6157H16.0022C15.9448 10.6155 15.8892 10.5957 15.8445 10.5598C15.7998 10.5238 15.7686 10.4737 15.7562 10.4177V10.4157C15.4822 9.19767 14.8162 8.80867 13.0102 8.80867C10.9872 8.80867 10.7522 9.51367 10.7522 10.0407C10.7522 10.6807 11.0302 10.8667 13.7612 11.2277C16.4632 11.5857 17.7472 12.0907 17.7472 13.9897C17.7432 15.9087 16.1462 17.0067 13.3592 17.0067L13.3562 17.0087Z" fill="black" />
            </g>
            <defs>
              <clipPath id="clip0">
                <rect width="21" height="24" fill="white" />
              </clipPath>
            </defs>
          </svg>