<svg width="77" height="77" viewBox="0 0 77 77" fill="none" xmlns="http://www.w3.org/2000/svg">
<path d="M77 37.5022C77 32.4009 70.6122 27.566 60.8172 24.5694C63.079 14.5883 62.0748 6.64444 57.6473 4.10023C56.5745 3.49937 55.3603 3.19693 54.131 3.22435V6.72144C54.8529 6.72144 55.4336 6.86581 55.9212 7.1321C58.0548 8.35769 58.982 13.0162 58.2601 19.0126C58.0869 20.4884 57.8045 22.0412 57.458 23.6261C54.178 22.8357 50.8489 22.2645 47.493 21.9161C45.4937 19.1579 43.3125 16.5362 40.964 14.0685C46.0813 9.31377 50.8842 6.7086 54.1502 6.7086V3.20831C49.8318 3.20831 44.182 6.2851 38.4679 11.6206C32.7571 6.3204 27.104 3.27248 22.7888 3.27248V6.76956C26.0388 6.76956 30.8577 9.3619 35.975 14.0846C33.7773 16.3946 31.5796 19.0126 29.491 21.9161C26.1281 22.2606 22.7931 22.8373 19.5099 23.6422C19.1473 22.0733 18.881 20.5526 18.6917 19.0928C17.9538 13.0932 18.865 8.43469 20.9857 7.19627C21.4541 6.91394 22.0669 6.7856 22.7888 6.7856V3.28852C21.4734 3.28852 20.2767 3.57085 19.2436 4.1644C14.8321 6.7086 13.844 14.6332 16.1187 24.5854C6.35571 27.6013 0 32.417 0 37.5022C0 42.6034 6.38779 47.4384 16.1828 50.4318C13.921 60.4161 14.9252 68.3599 19.3527 70.9009C20.3729 71.4977 21.5664 71.78 22.8818 71.78C27.2002 71.78 32.8501 68.7032 38.5642 63.3678C44.275 68.6711 49.9249 71.7159 54.2433 71.7159C55.482 71.742 56.7055 71.4386 57.7885 70.8368C62.2 68.2958 63.1881 60.3712 60.9134 50.4189C70.6443 47.4224 77 42.5874 77 37.5022ZM56.5629 27.0334C55.9533 29.1312 55.2467 31.1996 54.4454 33.2319C53.1337 30.6805 51.6935 28.1973 50.1302 25.7918C52.36 26.1222 54.5096 26.5297 56.5661 27.0334H56.5629ZM49.3763 43.7488C48.1539 45.8663 46.8962 47.8779 45.5936 49.7452C40.8846 50.1602 36.1484 50.1656 31.4385 49.7612C28.7369 45.9022 26.3742 41.8166 24.3769 37.5503C26.3712 33.2739 28.7238 29.174 31.4096 25.2945C36.1175 24.8786 40.8526 24.8721 45.5615 25.2752C46.8641 27.1425 48.1378 29.1381 49.3602 31.2427C50.5537 33.2961 51.6381 35.3815 52.6263 37.4861C51.6272 39.6163 50.5429 41.7056 49.3763 43.7488ZM54.4454 41.7083C55.2924 43.8098 56.0175 45.9144 56.611 47.9549C54.5577 48.4586 52.3889 48.8821 50.1462 49.2094C51.7031 46.782 53.1379 44.2786 54.4454 41.7083ZM38.5321 58.4558C37.0723 56.9479 35.6125 55.2699 34.1687 53.4316C35.5804 53.4957 37.0242 53.5438 38.484 53.5438C39.9598 53.5438 41.4196 53.5118 42.8473 53.4316C41.4356 55.2699 39.9758 56.9479 38.5321 58.4558ZM26.8537 49.2094C24.6905 48.896 22.5429 48.4827 20.4178 47.971C20.9985 45.9465 21.7204 43.8579 22.5353 41.7725C23.1802 43.0237 23.8572 44.2814 24.5951 45.5391C25.333 46.7935 26.0837 48.0191 26.8537 49.2094ZM38.4519 16.5486C39.9117 18.0565 41.3715 19.7344 42.8152 21.5728C41.4035 21.5086 39.9598 21.4605 38.5 21.4605C37.0242 21.4605 35.5644 21.4926 34.1367 21.5728C35.5483 19.7344 37.0081 18.0565 38.4519 16.5486ZM26.8377 25.795C25.2812 28.2171 23.8464 30.7152 22.5385 33.28C21.7147 31.2346 20.9919 29.1498 20.3729 27.0334C22.4262 26.5457 24.5951 26.1222 26.8377 25.795ZM12.6344 45.4428C7.07758 43.0751 3.48425 39.9662 3.48425 37.5022C3.48425 35.0382 7.07758 31.9133 12.6344 29.5616C13.9819 28.9809 15.4578 28.4611 16.9817 27.9766C17.8768 31.0502 19.0543 34.2521 20.5109 37.5343C19.1357 40.6213 17.9726 43.7985 17.0298 47.0438C15.5394 46.5823 14.0725 46.048 12.6344 45.4428ZM21.0788 67.8691C18.9452 66.6499 18.018 61.985 18.7399 55.9918C18.9131 54.516 19.1955 52.9599 19.542 51.375C22.6155 52.129 25.9747 52.7097 29.507 53.0883C31.5064 55.8464 33.6876 58.4681 36.036 60.9358C30.9187 65.6906 26.1158 68.2958 22.8498 68.2958C22.2336 68.3025 21.6252 68.157 21.0788 67.8723V67.8691ZM58.3082 55.9116C59.0462 61.908 58.135 66.5697 56.0143 67.8081C55.5459 68.0904 54.9331 68.2156 54.2112 68.2156C50.9612 68.2156 46.1422 65.6264 41.025 60.9006C43.2227 58.597 45.4204 55.9758 47.509 53.0722C50.8719 52.7277 54.2069 52.151 57.4901 51.3461C57.8527 52.9311 58.1318 54.4518 58.3082 55.9116ZM64.3495 45.4428C63.002 46.0235 61.5262 46.5433 60.0022 47.0277C59.0429 43.7659 57.8638 40.5727 56.4731 37.4701C57.9168 34.2072 59.075 31.0214 59.9541 27.9606C61.5102 28.4451 62.9828 28.9809 64.3656 29.5616C69.9224 31.9293 73.5157 35.0382 73.5157 37.5022C73.4997 39.9662 69.9064 43.0911 64.3495 45.4428Z" fill="black"/>
<path d="M38.4834 44.6763C40.386 44.6763 42.2107 43.9205 43.5561 42.5751C44.9014 41.2298 45.6572 39.4051 45.6572 37.5024C45.6572 35.5998 44.9014 33.7751 43.5561 32.4298C42.2107 31.0844 40.386 30.3286 38.4834 30.3286C36.5808 30.3286 34.7561 31.0844 33.4107 32.4298C32.0654 33.7751 31.3096 35.5998 31.3096 37.5024C31.3096 39.4051 32.0654 41.2298 33.4107 42.5751C34.7561 43.9205 36.5808 44.6763 38.4834 44.6763Z" fill="black"/>
</svg>
